<svg width="352" height="26" viewBox="0 0 352 26" fill="none" xmlns="http://www.w3.org/2000/svg">
<path d="M351 24.5C351.276 24.5 351.5 24.7239 351.5 25C351.5 25.2761 351.276 25.5 351 25.5V24.5ZM274 25L274 25.5L273.862 25.5L273.743 25.4287L274 25ZM234 1L234 0.500001L234.138 0.500001L234.257 0.571254L234 1ZM0.999999 1.5L0.499999 1.5L0.499999 0.500002L0.999999 0.500002L0.999999 1.5ZM351 25.5L274 25.5L274 24.5L351 24.5V25.5ZM273.743 25.4287L233.743 1.42875L234.257 0.571254L274.257 24.5713L273.743 25.4287ZM234 1.5L0.999999 1.5L0.999999 0.500002L234 0.500001L234 1.5Z" fill="url(#paint0_linear_436_1136)"/>
<defs>
<linearGradient id="paint0_linear_436_1136" x1="123.696" y1="2.2825" x2="283.798" y2="64.2303" gradientUnits="userSpaceOnUse">
<stop stop-color="#94FFEC"/>
<stop offset="1" stop-color="#94FFEC" stop-opacity="0"/>
</linearGradient>
</defs>
</svg>
